<svg version="1.1" id="Layer_1" xmlns="http://www.w3.org/2000/svg" xmlns:xlink="http://www.w3.org/1999/xlink" x="0px" y="0px"
	 width="100%" viewBox="0 0 426 99" enable-background="new 0 0 426 99" xml:space="preserve">
<path fill="#000000" opacity="1.000000" stroke="none" 
	d="
M316.000000,100.000000 
	C210.666672,100.000000 105.833359,100.000000 1.000028,100.000000 
	C1.000019,67.000015 1.000019,34.000034 1.000009,1.000037 
	C142.999969,1.000025 284.999939,1.000025 426.999939,1.000012 
	C426.999939,33.999962 426.999939,66.999924 426.999969,99.999939 
	C390.166656,100.000000 353.333344,100.000000 316.000000,100.000000 
M68.439430,36.134590 
	C68.688309,35.819332 68.937187,35.504074 69.817604,34.863693 
	C70.145477,33.567444 70.473351,32.271198 71.533585,30.868532 
	C72.631577,30.442768 73.729568,30.017006 74.646347,29.661512 
	C74.432320,28.753204 74.225662,27.876167 74.725227,26.728081 
	C74.504349,25.819733 74.303543,24.124548 74.059654,24.118326 
	C68.246857,23.970022 62.429428,24.003035 56.612846,24.003035 
	C56.603771,24.324524 56.594700,24.646015 56.585625,24.967505 
	C62.049698,25.644863 67.513763,26.322222 72.845573,27.672934 
	C72.206909,28.808010 71.568245,29.943085 70.296524,31.223490 
	C69.798965,32.271812 69.301407,33.320129 68.674683,34.416576 
	C68.674683,34.416576 68.564774,34.328011 67.829285,33.864498 
	C67.899796,34.659435 67.970314,35.454376 68.439430,36.134590 
M224.886139,79.884483 
	C224.993439,79.561211 224.948654,79.260551 224.900818,78.554253 
	C224.900818,78.554253 225.066864,78.132309 225.804459,78.129311 
	C226.472946,77.068794 227.141434,76.008286 227.982880,74.233559 
	C227.932938,73.504601 227.882996,72.775642 227.719635,71.272614 
	C226.003876,71.355453 223.486481,69.351219 223.016800,73.886391 
	C223.080338,75.908707 223.143890,77.931015 223.106613,80.408653 
	C223.477615,80.475494 223.848618,80.542343 224.502380,80.535042 
	C224.502380,80.535042 224.607620,80.262321 224.886139,79.884483 
M237.901886,28.697233 
	C238.171616,28.891106 238.441345,29.084980 238.711075,29.278847 
	C238.539139,28.798885 238.367203,28.318924 238.105988,27.335546 
	C237.841370,27.141207 237.576767,26.946867 237.312164,26.752523 
	C237.463531,27.235130 237.614899,27.717737 237.901886,28.697233 
M57.684807,50.873322 
	C57.724224,50.262203 57.763641,49.651089 58.015015,48.392910 
	C58.126110,48.279083 58.253670,48.176765 58.343555,48.048119 
	C58.429245,47.925480 58.475647,47.775394 58.539318,47.637375 
	C57.548599,47.722191 56.178795,47.445763 55.664928,47.984997 
	C55.048874,48.631462 55.162998,49.973755 55.007908,51.729282 
	C55.650692,52.143097 56.293476,52.556908 57.450565,53.063354 
	C57.742973,52.863270 58.035381,52.663181 58.327793,52.463100 
	C57.991467,52.296642 57.655136,52.130184 57.065880,51.557854 
	C57.065880,51.557854 57.134270,51.084541 57.041954,51.035999 
	C57.041954,51.035999 57.089458,51.128853 57.684807,50.873322 
M202.570114,27.217543 
	C202.245407,27.612913 201.920685,28.008284 201.595963,28.403656 
	C201.707993,28.486452 201.820023,28.569250 201.932037,28.652046 
	C202.251892,28.082188 202.571732,27.512327 203.319977,26.511835 
	C203.887512,26.343115 204.455032,26.174393 205.729187,25.572849 
	C211.752228,25.572849 217.775253,25.572849 223.798294,25.572849 
	C223.789001,25.161789 223.779709,24.750729 223.770401,24.339668 
	C216.411072,24.339668 209.051727,24.339668 201.663010,24.339668 
	C202.779480,24.894428 203.920135,25.461199 204.690552,26.513067 
	C204.109100,26.665895 203.527649,26.818726 202.570114,27.217543 
M318.989014,77.251678 
	C318.669067,76.801720 318.349091,76.351768 318.029144,75.901810 
	C317.699677,76.513550 316.954529,77.341255 317.134766,77.688202 
	C317.431244,78.258865 318.327148,78.518097 319.625397,79.123878 
	C320.340790,78.062431 321.056152,77.000984 321.771545,75.939545 
	C321.387360,75.725937 321.003174,75.512337 320.618958,75.298729 
	C320.075806,76.203476 319.532623,77.108223 318.989014,77.251678 
M69.018341,38.939476 
	C68.947487,38.685795 68.901024,38.430653 67.523209,38.151638 
	C66.387695,34.705730 65.211258,37.863400 64.028915,37.320358 
	C63.839226,36.014698 63.649544,34.709042 63.459858,33.403381 
	C62.853497,33.386261 62.247135,33.369137 61.640774,33.352016 
	C61.234230,37.743961 60.776352,42.132812 60.511574,46.533287 
	C60.488602,46.915062 61.990494,47.870426 62.345623,47.691093 
	C63.048088,47.336369 63.800041,46.418598 63.895802,45.653988 
	C64.132545,43.763702 64.010651,41.828503 64.708740,39.988537 
	C66.130470,39.704536 67.552208,39.420532 69.018341,38.939476 
M299.813171,72.026085 
	C300.363251,71.922523 300.913330,71.818962 301.463440,71.715401 
	C301.376373,71.414772 301.289276,71.114143 301.202209,70.813507 
	C300.178009,71.221977 299.153809,71.630455 298.013916,72.889130 
	C298.013916,75.103424 298.013916,77.317719 298.013916,80.240067 
	C298.936432,78.684196 299.430603,77.850700 300.189575,77.729347 
	C300.756073,76.711105 301.322540,75.692863 301.889038,74.674629 
	C301.237640,74.777222 300.586273,74.879807 299.271118,74.768723 
	C299.230499,73.857262 299.189880,72.945801 299.813171,72.026085 
M243.898087,78.142738 
	C244.027374,76.447296 244.156677,74.751862 244.883926,72.792114 
	C244.218170,72.234947 243.552429,71.677780 242.886673,71.120613 
	C242.643402,71.756653 242.400131,72.392700 242.022232,73.853355 
	C242.341461,75.836899 242.660706,77.820435 243.501266,79.874146 
	C243.582611,79.578468 243.663971,79.282784 243.898087,78.142738 
M129.708496,23.984110 
	C129.344650,24.217636 128.980804,24.451162 128.616959,24.684690 
	C128.760376,24.767813 128.901581,24.919432 129.047546,24.924189 
	C134.940063,25.116201 140.833023,25.294949 146.725922,25.475395 
	C146.710068,25.163425 146.694214,24.851458 146.649765,23.977118 
	C141.277222,23.977118 135.878799,23.977118 129.708496,23.984110 
M375.043152,23.995987 
	C370.247284,23.995987 365.451385,23.995987 360.655518,23.995987 
	C360.677185,24.587280 360.698853,25.178576 360.720551,25.769869 
	C366.611603,25.511688 372.502655,25.253508 378.393707,24.995325 
	C378.385162,24.706772 378.376587,24.418219 378.368042,24.129665 
	C377.549652,24.085300 376.731293,24.040936 375.043152,23.995987 
M294.756836,42.979797 
	C293.213837,43.279694 291.670837,43.579586 290.127838,43.879478 
	C290.248810,44.336132 290.369751,44.792786 290.490692,45.249439 
	C294.765717,45.062416 299.040741,44.875393 303.315765,44.688366 
	C303.297516,44.118896 303.279266,43.549423 303.261017,42.979950 
	C300.725250,42.979950 298.189453,42.979950 294.756836,42.979797 
M334.083405,52.441532 
	C335.166992,51.292774 336.250549,50.144016 337.334137,48.995262 
	C336.233643,48.643917 334.717255,47.658424 334.108856,48.057426 
	C332.100830,49.374382 331.418365,51.220371 334.083405,52.441532 
M262.117096,50.589485 
	C262.912506,50.647625 263.707886,50.705765 264.503296,50.763905 
	C264.354218,50.049976 264.205139,49.336048 264.056061,48.622131 
	C263.298187,49.122509 262.540314,49.622887 262.117096,50.589485 
M104.968956,53.097023 
	C104.968956,51.795429 104.968956,50.493835 104.968956,49.192238 
	C104.381310,49.275555 103.793655,49.358868 103.206009,49.442181 
	C103.600571,50.757439 103.995140,52.072693 104.968956,53.097023 
M248.229294,50.113941 
	C248.779373,50.502270 249.329468,50.890598 249.879547,51.278927 
	C250.132721,50.765228 250.385910,50.251530 250.639084,49.737831 
	C249.871399,49.651909 249.103714,49.565987 248.229294,50.113941 
M254.431732,36.704845 
	C254.845901,36.676559 255.260071,36.648273 255.674240,36.619987 
	C255.247910,36.034340 254.821594,35.448692 254.395264,34.863045 
	C254.327545,35.314178 254.259827,35.765312 254.431732,36.704845 
M251.535004,26.074139 
	C251.134140,25.981091 250.733292,25.888044 250.332428,25.794998 
	C250.434235,26.224087 250.536041,26.653177 250.637848,27.082268 
	C251.026245,26.907593 251.414627,26.732920 251.535004,26.074139 
M319.127167,71.940590 
	C319.250732,71.838402 319.398346,71.753151 319.487366,71.626648 
	C319.529877,71.566223 319.472565,71.341125 319.441101,71.336952 
	C318.739807,71.243950 318.035767,71.171387 317.332275,71.094948 
	C317.305725,71.254517 317.279144,71.414078 317.252594,71.573647 
	C317.649414,71.720192 318.046204,71.866730 319.127167,71.940590 
M293.983856,34.319920 
	C294.233673,34.238220 294.483521,34.156521 294.733337,34.074829 
	C294.454468,33.798653 294.175568,33.522480 293.896698,33.246307 
	C293.816833,33.496708 293.736969,33.747112 293.983856,34.319920 
M269.018768,26.647415 
	C269.142456,27.227047 269.266144,27.806679 269.389832,28.386311 
	C269.602600,28.334564 269.815369,28.282820 270.028137,28.231073 
	C269.857605,27.538906 269.687073,26.846739 269.018768,26.647415 
M99.171509,46.752064 
	C99.271393,47.007992 99.371277,47.263920 99.471169,47.519848 
	C99.491753,47.173500 99.512329,46.827152 99.171509,46.752064 
M246.222351,52.193699 
	C246.407227,52.132195 246.592102,52.070694 246.776978,52.009197 
	C246.590988,51.949570 246.404984,51.889942 246.222351,52.193699 
M101.476288,53.589855 
	C101.555099,53.243015 101.633911,52.896172 101.712723,52.549328 
	C101.506714,52.774567 101.300705,52.999802 101.476288,53.589855 
M260.476501,53.515167 
	C260.602570,53.268623 260.756836,53.030548 260.835114,52.769669 
	C260.855042,52.703201 260.633728,52.564354 260.523285,52.458744 
	C260.396729,52.705414 260.270172,52.952084 260.476501,53.515167 
M261.205322,46.680378 
	C261.354462,46.864395 261.503571,47.048409 261.652710,47.232430 
	C261.613312,46.969933 261.573914,46.707436 261.205322,46.680378 
M100.476311,50.557495 
	C100.610374,50.290775 100.775337,50.033054 100.857452,49.751198 
	C100.878777,49.678001 100.641190,49.529369 100.522522,49.415390 
	C100.387947,49.682301 100.253365,49.949211 100.476311,50.557495 
M330.804108,45.222855 
	C330.713104,44.986759 330.622131,44.750660 330.531158,44.514557 
	C330.509583,44.832020 330.487976,45.149479 330.804108,45.222855 
M96.849426,39.249805 
	C96.742989,38.979504 96.636551,38.709202 96.530121,38.438896 
	C96.509850,38.805420 96.489571,39.171940 96.849426,39.249805 
M95.176628,36.221668 
	C95.391716,36.219456 95.608589,36.228806 95.819038,36.196442 
	C95.839203,36.193340 95.835579,35.809246 95.815636,35.806572 
	C95.604713,35.778362 95.388222,35.791668 95.176628,36.221668 
M91.117027,26.721689 
	C91.314697,26.968714 91.512360,27.215740 91.710022,27.462765 
	C91.655281,27.109335 91.600533,26.755905 91.117027,26.721689 
M326.805511,34.226189 
	C326.714020,33.989918 326.622559,33.753647 326.531097,33.517372 
	C326.509705,33.835079 326.488281,34.152786 326.805511,34.226189 
M253.169159,31.746817 
	C253.269943,32.003460 253.370712,32.260105 253.471481,32.516750 
	C253.592621,32.426723 253.827805,32.313618 253.815063,32.250679 
	C253.761093,31.983942 253.633453,31.732103 253.169159,31.746817 
M93.134132,31.249626 
	C93.377617,31.246483 93.623169,31.256557 93.861267,31.219126 
	C93.884315,31.215502 93.861115,30.917673 93.859390,30.756413 
	C93.616272,30.759306 93.373161,30.762199 93.134132,31.249626 
M95.574593,28.517715 
	C95.574593,28.517715 95.477898,28.573421 95.574593,28.517715 
M96.522743,30.282724 
	C96.522743,30.282724 96.373306,30.604626 96.373306,30.604626 
	C96.373306,30.604626 96.713638,30.532381 96.522743,30.282724 
M94.627274,33.494354 
	C94.627274,33.494354 94.453407,33.386765 94.453407,33.386765 
	C94.453407,33.386765 94.473083,33.601559 94.627274,33.494354 
M97.521553,33.330624 
	C97.521553,33.330624 97.396950,33.572018 97.396950,33.572018 
	C97.396950,33.572018 97.664543,33.526924 97.521553,33.330624 
M247.312927,46.491432 
	C247.312927,46.491432 247.575684,46.627674 247.575684,46.627674 
	C247.575684,46.627674 247.525772,46.328861 247.312927,46.491432 
z"/>
<path fill="#070603" opacity="1.000000" stroke="none" 
	d="
M64.032883,39.911350 
	C64.010651,41.828503 64.132545,43.763702 63.895802,45.653988 
	C63.800041,46.418598 63.048088,47.336369 62.345623,47.691093 
	C61.990494,47.870426 60.488602,46.915062 60.511574,46.533287 
	C60.776352,42.132812 61.234230,37.743961 61.640774,33.352016 
	C62.247135,33.369137 62.853497,33.386261 63.459858,33.403381 
	C63.649544,34.709042 63.839226,36.014698 64.044312,38.022217 
	C64.050766,39.119835 64.041824,39.515594 64.032883,39.911350 
z"/>
<path fill="#7D7D7D" opacity="1.000000" stroke="none" 
	d="
M205.060776,26.027971 
	C203.920135,25.461199 202.779480,24.894428 201.663010,24.339668 
	C209.051727,24.339668 216.411072,24.339668 223.770401,24.339668 
	C223.779709,24.750729 223.789001,25.161789 223.798294,25.572849 
	C217.775253,25.572849 211.752228,25.572849 205.380707,25.796665 
	C205.032211,26.020481 205.060776,26.027971 205.060776,26.027971 
z"/>
<path fill="#7D7C79" opacity="1.000000" stroke="none" 
	d="
M72.977837,26.999580 
	C67.513763,26.322222 62.049698,25.644863 56.585625,24.967505 
	C56.594700,24.646015 56.603771,24.324524 56.612846,24.003035 
	C62.429428,24.003035 68.246857,23.970022 74.059654,24.118326 
	C74.303543,24.124548 74.504349,25.819733 74.111824,26.875729 
	C73.324890,27.015446 73.151367,27.007511 72.977837,26.999580 
z"/>
<path fill="#7D7D7D" opacity="1.000000" stroke="none" 
	d="
M130.094421,23.980614 
	C135.878799,23.977118 141.277222,23.977118 146.649765,23.977118 
	C146.694214,24.851458 146.710068,25.163425 146.725922,25.475395 
	C140.833023,25.294949 134.940063,25.116201 129.047546,24.924189 
	C128.901581,24.919432 128.760376,24.767813 128.616959,24.684689 
	C128.980804,24.451162 129.344650,24.217636 130.094421,23.980614 
z"/>
<path fill="#808080" opacity="1.000000" stroke="none" 
	d="
M375.478027,23.996281 
	C376.731293,24.040936 377.549652,24.085300 378.368042,24.129665 
	C378.376587,24.418219 378.385162,24.706772 378.393707,24.995325 
	C372.502655,25.253508 366.611603,25.511688 360.720551,25.769869 
	C360.698853,25.178576 360.677185,24.587280 360.655518,23.995987 
	C365.451385,23.995987 370.247284,23.995987 375.478027,23.996281 
z"/>
<path fill="#0B0B0B" opacity="1.000000" stroke="none" 
	d="
M295.205261,42.979874 
	C298.189453,42.979950 300.725250,42.979950 303.261017,42.979950 
	C303.279266,43.549423 303.297516,44.118896 303.315765,44.688366 
	C299.040741,44.875393 294.765717,45.062416 290.490692,45.249439 
	C290.369751,44.792786 290.248810,44.336132 290.127838,43.879478 
	C291.670837,43.579586 293.213837,43.279694 295.205261,42.979874 
z"/>
<path fill="#161616" opacity="1.000000" stroke="none" 
	d="
M333.986023,52.704834 
	C331.418365,51.220371 332.100830,49.374382 334.108856,48.057426 
	C334.717255,47.658424 336.233643,48.643917 337.334137,48.995262 
	C336.250549,50.144016 335.166992,51.292774 333.986023,52.704834 
z"/>
<path fill="#D4CFB6" opacity="1.000000" stroke="none" 
	d="
M244.285980,73.056412 
	C244.156677,74.751862 244.027374,76.447296 243.641144,78.643013 
	C243.170563,79.315239 243.035812,79.535469 242.979950,79.803978 
	C242.660706,77.820435 242.341461,75.836899 242.444336,73.448326 
	C243.339600,73.047668 243.812790,73.052040 244.285980,73.056412 
z"/>
<path fill="#EEEBDE" opacity="1.000000" stroke="none" 
	d="
M54.960918,51.014717 
	C55.162998,49.973755 55.048874,48.631462 55.664928,47.984997 
	C56.178795,47.445763 57.548599,47.722191 58.539318,47.637375 
	C58.475647,47.775394 58.429245,47.925480 58.343555,48.048119 
	C58.253670,48.176765 58.126110,48.279083 57.704666,48.921669 
	C57.292698,50.009907 57.191078,50.569378 57.089458,51.128853 
	C57.089458,51.128853 57.041954,51.035999 56.726562,51.032455 
	C55.927750,51.024178 55.444336,51.019447 54.960918,51.014717 
z"/>
<path fill="#F1EAC3" opacity="1.000000" stroke="none" 
	d="
M299.924805,77.017204 
	C299.430603,77.850700 298.936432,78.684196 298.013916,80.240067 
	C298.013916,77.317719 298.013916,75.103424 298.326721,72.468643 
	C298.809418,72.043556 298.979340,72.038948 299.149261,72.034340 
	C299.189880,72.945801 299.230499,73.857262 299.853821,75.013214 
	C300.265961,75.844208 300.095398,76.430710 299.924805,77.017204 
z"/>
<path fill="#D4CFB6" opacity="1.000000" stroke="none" 
	d="
M223.207428,79.953331 
	C223.143890,77.931015 223.080338,75.908707 223.376526,73.491791 
	C224.181580,73.444244 224.626892,73.791306 225.024231,74.347122 
	C224.976257,74.555878 225.109299,74.963013 224.838409,75.114807 
	C224.733963,76.221832 224.900406,77.177071 225.066864,78.132309 
	C225.066864,78.132309 224.900818,78.554253 224.651794,78.952103 
	C224.471054,79.654068 224.539337,79.958191 224.607620,80.262321 
	C224.607620,80.262321 224.502380,80.535042 224.140228,80.358231 
	C223.587875,80.105400 223.397659,80.029366 223.207428,79.953331 
z"/>
<path fill="#C8C4B5" opacity="1.000000" stroke="none" 
	d="
M64.370804,39.949944 
	C64.041824,39.515594 64.050766,39.119835 64.056229,38.427101 
	C65.211258,37.863400 66.387695,34.705730 67.827377,37.954056 
	C67.672966,37.903217 67.214386,38.049957 66.755806,38.196693 
	C67.495186,38.509972 68.234558,38.823250 68.973938,39.136528 
	C67.552208,39.420532 66.130470,39.704536 64.370804,39.949944 
z"/>
<path fill="#BFB596" opacity="1.000000" stroke="none" 
	d="
M225.435654,78.130814 
	C224.900406,77.177071 224.733963,76.221832 225.140472,75.097931 
	C226.116211,74.947449 226.519012,74.965637 227.142761,74.948898 
	C227.363739,74.913963 227.809906,74.947762 227.809906,74.947769 
	C227.141434,76.008286 226.472946,77.068794 225.435654,78.130814 
z"/>
<path fill="#181818" opacity="1.000000" stroke="none" 
	d="
M261.949768,50.356377 
	C262.540314,49.622887 263.298187,49.122509 264.056061,48.622128 
	C264.205139,49.336048 264.354218,50.049976 264.503296,50.763901 
	C263.707886,50.705765 262.912506,50.647625 261.949768,50.356377 
z"/>
<path fill="#BFB596" opacity="1.000000" stroke="none" 
	d="
M225.072235,74.138367 
	C224.626892,73.791306 224.181580,73.444244 223.443573,73.062302 
	C223.486481,69.351219 226.003876,71.355453 227.539978,71.672264 
	C227.360336,72.071915 226.888489,72.033638 226.609894,72.170319 
	C225.911591,72.917450 225.491913,73.527908 225.072235,74.138367 
z"/>
<path fill="#1D1D1D" opacity="1.000000" stroke="none" 
	d="
M104.679329,53.242485 
	C103.995140,52.072693 103.600571,50.757439 103.206009,49.442181 
	C103.793655,49.358868 104.381310,49.275555 104.968956,49.192238 
	C104.968956,50.493835 104.968956,51.795429 104.679329,53.242485 
z"/>
<path fill="#F1EAC3" opacity="1.000000" stroke="none" 
	d="
M318.989471,78.012970 
	C319.532623,77.108223 320.075806,76.203476 320.618958,75.298729 
	C321.003174,75.512337 321.387360,75.725937 321.771545,75.939545 
	C321.056152,77.000984 320.340790,78.062431 319.333435,78.792969 
	C319.041473,78.462067 318.989471,78.012978 318.989471,78.012970 
z"/>
<path fill="#151515" opacity="1.000000" stroke="none" 
	d="
M248.282654,49.797005 
	C249.103714,49.565987 249.871399,49.651909 250.639084,49.737831 
	C250.385910,50.251530 250.132721,50.765228 249.879547,51.278923 
	C249.329468,50.890598 248.779373,50.502270 248.282654,49.797005 
z"/>
<path fill="#D4CFB6" opacity="1.000000" stroke="none" 
	d="
M72.911705,27.336256 
	C73.151367,27.007511 73.324890,27.015446 73.758713,27.011253 
	C74.225662,27.876167 74.432320,28.753204 74.646347,29.661512 
	C73.729568,30.017006 72.631577,30.442768 71.196655,30.953215 
	C70.859718,31.037897 70.929581,31.078161 70.929581,31.078159 
	C71.568245,29.943085 72.206909,28.808010 72.911705,27.336256 
z"/>
<path fill="#C8C4B5" opacity="1.000000" stroke="none" 
	d="
M318.989258,77.632324 
	C318.989471,78.012978 319.041473,78.462067 319.005920,78.685349 
	C318.327148,78.518097 317.431244,78.258865 317.134766,77.688202 
	C316.954529,77.341255 317.699677,76.513550 318.029144,75.901810 
	C318.349091,76.351768 318.669067,76.801720 318.989258,77.632324 
z"/>
<path fill="#F7F4E8" opacity="1.000000" stroke="none" 
	d="
M300.057190,77.373276 
	C300.095398,76.430710 300.265961,75.844208 300.185730,75.120056 
	C300.586273,74.879807 301.237640,74.777222 301.889038,74.674622 
	C301.322540,75.692863 300.756073,76.711105 300.057190,77.373276 
z"/>
<path fill="#7D7D7D" opacity="1.000000" stroke="none" 
	d="
M202.891571,26.942469 
	C202.571732,27.512327 202.251892,28.082188 201.932037,28.652046 
	C201.820023,28.569250 201.707993,28.486452 201.595963,28.403656 
	C201.920685,28.008284 202.245407,27.612913 202.748779,27.084900 
	C202.927444,26.952257 202.891586,26.942471 202.891571,26.942469 
z"/>
<path fill="#C8C4B5" opacity="1.000000" stroke="none" 
	d="
M68.803841,34.368450 
	C69.301407,33.320129 69.798965,32.271812 70.613052,31.150826 
	C70.929581,31.078161 70.859718,31.037897 70.830475,31.006424 
	C70.473351,32.271198 70.145477,33.567444 69.392044,34.827797 
	C68.966484,34.791897 68.803841,34.368450 68.803841,34.368450 
z"/>
<path fill="#BFB596" opacity="1.000000" stroke="none" 
	d="
M244.584946,72.924263 
	C243.812790,73.052040 243.339600,73.047668 242.511627,73.036018 
	C242.400131,72.392700 242.643402,71.756653 242.886673,71.120613 
	C243.552429,71.677780 244.218170,72.234947 244.584946,72.924263 
z"/>
<path fill="#181818" opacity="1.000000" stroke="none" 
	d="
M254.311920,36.460648 
	C254.259827,35.765312 254.327545,35.314178 254.395264,34.863045 
	C254.821594,35.448692 255.247910,36.034340 255.674240,36.619987 
	C255.260071,36.648273 254.845901,36.676559 254.311920,36.460648 
z"/>
<path fill="#1D1D1D" opacity="1.000000" stroke="none" 
	d="
M68.996140,39.038002 
	C68.234558,38.823250 67.495186,38.509972 66.755806,38.196693 
	C67.214386,38.049957 67.672966,37.903217 68.505249,37.965260 
	C68.901024,38.430653 68.947487,38.685795 68.996140,39.038002 
z"/>
<path fill="#BFB596" opacity="1.000000" stroke="none" 
	d="
M299.481201,72.030212 
	C298.979340,72.038948 298.809418,72.043556 298.384552,72.043549 
	C299.153809,71.630455 300.178009,71.221977 301.202209,70.813507 
	C301.289276,71.114143 301.376373,71.414772 301.463440,71.715401 
	C300.913330,71.818962 300.363251,71.922523 299.481201,72.030212 
z"/>
<path fill="#F7F4E8" opacity="1.000000" stroke="none" 
	d="
M54.984413,51.372002 
	C55.444336,51.019447 55.927750,51.024178 56.772720,51.056725 
	C57.134270,51.084541 57.065880,51.557854 57.162155,52.037399 
	C57.151043,52.668198 57.043655,52.819458 56.936264,52.970718 
	C56.293476,52.556908 55.650692,52.143097 54.984413,51.372002 
z"/>
<path fill="#181818" opacity="1.000000" stroke="none" 
	d="
M251.669006,26.316193 
	C251.414627,26.732920 251.026245,26.907593 250.637848,27.082268 
	C250.536041,26.653177 250.434235,26.224087 250.332428,25.794998 
	C250.733292,25.888044 251.134140,25.981091 251.669006,26.316193 
z"/>
<path fill="#F7F4E8" opacity="1.000000" stroke="none" 
	d="
M318.785095,71.976929 
	C318.046204,71.866730 317.649414,71.720192 317.252594,71.573647 
	C317.279144,71.414078 317.305725,71.254517 317.332275,71.094948 
	C318.035767,71.171387 318.739807,71.243950 319.441101,71.336952 
	C319.472565,71.341125 319.529877,71.566223 319.487366,71.626648 
	C319.398346,71.753151 319.250732,71.838402 318.785095,71.976929 
z"/>
<path fill="#0B0B0B" opacity="1.000000" stroke="none" 
	d="
M293.820496,34.158714 
	C293.736969,33.747112 293.816833,33.496708 293.896698,33.246307 
	C294.175568,33.522480 294.454468,33.798653 294.733337,34.074825 
	C294.483521,34.156521 294.233673,34.238220 293.820496,34.158714 
z"/>
<path fill="#D4CFB6" opacity="1.000000" stroke="none" 
	d="
M269.267639,26.400993 
	C269.687073,26.846739 269.857605,27.538906 270.028137,28.231073 
	C269.815369,28.282820 269.602600,28.334564 269.389832,28.386311 
	C269.266144,27.806679 269.142456,27.227047 269.267639,26.400993 
z"/>
<path fill="#F1EAC3" opacity="1.000000" stroke="none" 
	d="
M226.888489,72.033638 
	C226.888489,72.033638 227.360336,72.071915 227.596695,72.059296 
	C227.882996,72.775642 227.932938,73.504601 227.896393,74.590660 
	C227.809906,74.947762 227.363739,74.913963 227.178619,74.580238 
	C226.958496,73.508888 226.923492,72.771263 226.888489,72.033638 
z"/>
<path fill="#1D1D1D" opacity="1.000000" stroke="none" 
	d="
M99.352211,46.616432 
	C99.512329,46.827152 99.491753,47.173500 99.471161,47.519848 
	C99.371277,47.263920 99.271393,47.007992 99.352211,46.616432 
z"/>
<path fill="#151515" opacity="1.000000" stroke="none" 
	d="
M246.220673,52.012009 
	C246.404984,51.889942 246.590988,51.949570 246.776978,52.009193 
	C246.592102,52.070694 246.407227,52.132195 246.220673,52.012009 
z"/>
<path fill="#181818" opacity="1.000000" stroke="none" 
	d="
M57.193413,53.017036 
	C57.043655,52.819458 57.151043,52.668198 57.288620,52.240334 
	C57.655136,52.130184 57.991467,52.296642 58.327789,52.463097 
	C58.035381,52.663181 57.742973,52.863270 57.193413,53.017036 
z"/>
<path fill="#1D1D1D" opacity="1.000000" stroke="none" 
	d="
M101.285492,53.407448 
	C101.300705,52.999802 101.506714,52.774567 101.712723,52.549332 
	C101.633911,52.896172 101.555099,53.243015 101.285492,53.407448 
z"/>
<path fill="#181818" opacity="1.000000" stroke="none" 
	d="
M260.310059,53.356956 
	C260.270172,52.952084 260.396729,52.705414 260.523285,52.458752 
	C260.633728,52.564354 260.855042,52.703201 260.835114,52.769669 
	C260.756836,53.030548 260.602570,53.268623 260.310059,53.356956 
z"/>
<path fill="#F7F4E8" opacity="1.000000" stroke="none" 
	d="
M57.387131,51.001087 
	C57.191078,50.569378 57.292698,50.009907 57.598686,49.245201 
	C57.763641,49.651089 57.724224,50.262203 57.387131,51.001087 
z"/>
<path fill="#181818" opacity="1.000000" stroke="none" 
	d="
M261.369934,46.562656 
	C261.573914,46.707436 261.613312,46.969933 261.652710,47.232430 
	C261.503571,47.048409 261.354462,46.864395 261.369934,46.562656 
z"/>
<path fill="#1D1D1D" opacity="1.000000" stroke="none" 
	d="
M100.297546,50.386806 
	C100.253365,49.949211 100.387947,49.682301 100.522522,49.415390 
	C100.641190,49.529369 100.878777,49.678001 100.857452,49.751198 
	C100.775337,50.033054 100.610374,50.290775 100.297546,50.386806 
z"/>
<path fill="#161616" opacity="1.000000" stroke="none" 
	d="
M330.635254,45.344894 
	C330.487976,45.149479 330.509583,44.832020 330.531158,44.514557 
	C330.622131,44.750660 330.713104,44.986759 330.635254,45.344894 
z"/>
<path fill="#1D1D1D" opacity="1.000000" stroke="none" 
	d="
M96.659363,39.394135 
	C96.489571,39.171940 96.509850,38.805420 96.530121,38.438896 
	C96.636551,38.709202 96.742989,38.979504 96.659363,39.394135 
z"/>
<path fill="#1D1D1D" opacity="1.000000" stroke="none" 
	d="
M95.174950,36.007599 
	C95.388222,35.791668 95.604713,35.778362 95.815636,35.806572 
	C95.835579,35.809246 95.839203,36.193340 95.819038,36.196442 
	C95.608589,36.228806 95.391716,36.219456 95.174950,36.007599 
z"/>
<path fill="#1D1D1D" opacity="1.000000" stroke="none" 
	d="
M91.331406,26.562080 
	C91.600533,26.755905 91.655281,27.109335 91.710022,27.462765 
	C91.512360,27.215740 91.314697,26.968714 91.331406,26.562080 
z"/>
<path fill="#161616" opacity="1.000000" stroke="none" 
	d="
M326.636169,34.348343 
	C326.488281,34.152786 326.509705,33.835079 326.531097,33.517372 
	C326.622559,33.753647 326.714020,33.989918 326.636169,34.348343 
z"/>
<path fill="#7D7D7D" opacity="1.000000" stroke="none" 
	d="
M202.936829,26.961906 
	C203.527649,26.818726 204.109100,26.665895 204.875671,26.270519 
	C205.060776,26.027971 205.032211,26.020481 205.027390,26.013077 
	C204.455032,26.174393 203.887512,26.343115 203.105774,26.727154 
	C202.891586,26.942471 202.927444,26.952257 202.936829,26.961906 
z"/>
<path fill="#181818" opacity="1.000000" stroke="none" 
	d="
M253.350952,31.610817 
	C253.633453,31.732103 253.761093,31.983942 253.815063,32.250679 
	C253.827805,32.313618 253.592621,32.426723 253.471481,32.516750 
	C253.370712,32.260105 253.269943,32.003460 253.350952,31.610817 
z"/>
<path fill="#151515" opacity="1.000000" stroke="none" 
	d="
M237.766266,28.200344 
	C237.614899,27.717737 237.463531,27.235130 237.312164,26.752525 
	C237.576767,26.946867 237.841370,27.141207 238.043564,27.677816 
	C237.981140,28.020086 237.766266,28.200344 237.766266,28.200344 
z"/>
<path fill="#1D1D1D" opacity="1.000000" stroke="none" 
	d="
M93.132088,31.007359 
	C93.373161,30.762199 93.616272,30.759306 93.859390,30.756413 
	C93.861115,30.917673 93.884315,31.215502 93.861267,31.219126 
	C93.623169,31.256557 93.377617,31.246483 93.132088,31.007359 
z"/>
<path fill="#151515" opacity="1.000000" stroke="none" 
	d="
M238.088196,27.929525 
	C238.367203,28.318924 238.539139,28.798885 238.711075,29.278851 
	C238.441345,29.084980 238.171616,28.891106 237.834076,28.448788 
	C237.766266,28.200344 237.981140,28.020086 238.088196,27.929525 
z"/>
<path fill="#BFB596" opacity="1.000000" stroke="none" 
	d="
M223.157013,80.180992 
	C223.397659,80.029366 223.587875,80.105400 223.998856,80.395309 
	C223.848618,80.542343 223.477615,80.475494 223.157013,80.180992 
z"/>
<path fill="#BFB596" opacity="1.000000" stroke="none" 
	d="
M243.240601,79.839066 
	C243.035812,79.535469 243.170563,79.315239 243.564774,79.065193 
	C243.663971,79.282784 243.582611,79.578468 243.240601,79.839066 
z"/>
<path fill="#BFB596" opacity="1.000000" stroke="none" 
	d="
M224.746887,80.073402 
	C224.539337,79.958191 224.471054,79.654068 224.577271,79.166229 
	C224.948654,79.260551 224.993439,79.561211 224.746887,80.073402 
z"/>
<path fill="#1D1D1D" opacity="1.000000" stroke="none" 
	d="
M95.526245,28.545568 
	C95.477898,28.573421 95.574593,28.517715 95.526245,28.545568 
z"/>
<path fill="#1D1D1D" opacity="1.000000" stroke="none" 
	d="
M96.618195,30.407553 
	C96.713638,30.532381 96.373306,30.604626 96.373306,30.604626 
	C96.373306,30.604626 96.522743,30.282724 96.618195,30.407553 
z"/>
<path fill="#1D1D1D" opacity="1.000000" stroke="none" 
	d="
M94.550179,33.547958 
	C94.473083,33.601559 94.453407,33.386765 94.453407,33.386765 
	C94.453407,33.386765 94.627274,33.494354 94.550179,33.547958 
z"/>
<path fill="#1D1D1D" opacity="1.000000" stroke="none" 
	d="
M97.593048,33.428772 
	C97.664543,33.526924 97.396950,33.572018 97.396950,33.572018 
	C97.396950,33.572018 97.521553,33.330624 97.593048,33.428772 
z"/>
<path fill="#C8C4B5" opacity="1.000000" stroke="none" 
	d="
M68.040833,36.249313 
	C67.970314,35.454376 67.899796,34.659435 68.006119,34.561241 
	C68.135582,35.588428 68.088211,35.918873 68.040833,36.249313 
z"/>
<path fill="#C8C4B5" opacity="1.000000" stroke="none" 
	d="
M69.076279,34.990356 
	C68.937187,35.504074 68.688309,35.819332 68.240128,36.191952 
	C68.088211,35.918873 68.135582,35.588428 68.373863,34.792999 
	C68.564774,34.328011 68.674683,34.416576 68.739258,34.392513 
	C68.803841,34.368450 68.966484,34.791897 69.076279,34.990356 
z"/>
<path fill="#151515" opacity="1.000000" stroke="none" 
	d="
M247.419342,46.410149 
	C247.525772,46.328861 247.575684,46.627674 247.575684,46.627674 
	C247.575684,46.627674 247.312927,46.491432 247.419342,46.410149 
z"/>
<path fill="#000000" opacity="1.000000" stroke="none" 
	d="
M226.609894,72.170319 
	C226.923492,72.771263 226.958496,73.508888 226.957657,74.615173 
	C226.519012,74.965637 226.116211,74.947449 225.411362,74.946136 
	C225.109299,74.963013 224.976257,74.555878 225.024246,74.347122 
	C225.491913,73.527908 225.911591,72.917450 226.609894,72.170319 
z"/>
</svg>